<?xml version="1.0" encoding="UTF-8"?>
<svg version="1.1" xmlns="http://www.w3.org/2000/svg" width="1244" height="1238">
<path d="M0 0 C2.10324286 1.67263464 3.96641468 3.31677287 5.875 5.1875 C7.02470203 6.28128947 8.17444323 7.37503778 9.32421875 8.46875 C9.92282715 9.04496094 10.52143555 9.62117188 11.13818359 10.21484375 C14.29112108 13.23795927 17.49177578 16.20976736 20.6875 19.1875 C21.32099365 19.78022705 21.9544873 20.3729541 22.60717773 20.98364258 C26.18044621 24.32361924 29.78557361 27.62075271 33.4375 30.875 C37.03659855 34.08741854 40.47152898 37.41057152 43.8203125 40.8828125 C45.73835081 42.7458533 47.69981465 44.49847331 49.71875 46.25 C54.04835025 50.0115215 58.21684993 53.92592158 62.375 57.875 C66.8966569 62.15126925 71.41624498 66.42110121 76.0625 70.5625 C83.17029664 76.90188619 90.06688076 83.47108903 97 90 C98.41533591 91.33206172 99.83070045 92.66409301 101.24609375 93.99609375 C103.37523964 95.99980879 105.50407859 98.00384365 107.63183594 100.0090332 C111.14864553 103.32226773 114.67110627 106.62903971 118.20703125 109.921875 C124.91690103 116.17554967 131.53894654 122.48196037 137.98779297 129.00488281 C141.15225638 132.19215904 144.40876322 135.19598436 147.82421875 138.109375 C151.26306796 141.09753123 154.5871478 144.20860157 157.92797852 147.30541992 C160.69587994 149.87089931 163.46745671 152.43159027 166.2578125 154.97265625 C171.06261386 159.34877645 175.80679801 163.74964846 180.359375 168.390625 C182.81293063 170.79744624 185.4282586 173.0074228 188.03125 175.25 C189.93023071 176.93798286 191.72005988 178.68769734 193.5 180.5 C195.75797943 182.79326036 198.05996504 184.96428028 200.5 187.0625 C205.19554415 191.11195184 209.70007568 195.35855804 214.22192383 199.59936523 C218.18009004 203.30925673 222.16858298 206.98116407 226.1875 210.625 C230.27186308 214.34801192 234.19399533 218.18241228 238.0625 222.125 C242.62666653 226.77175904 247.43103485 230.91962813 252.53515625 234.9765625 C255.34325483 237.28178447 257.85794951 239.76113988 260.375 242.375 C262.08941611 244.08941611 263.88785173 245.63570978 265.75 247.1875 C270.62674961 251.33932737 270.62674961 251.33932737 272 254 C271.60068014 257.82311792 270.67177793 259.83221395 268.0078125 262.56640625 C267.39075439 263.21053467 266.77369629 263.85466309 266.13793945 264.51831055 C265.14153442 265.53018433 265.14153442 265.53018433 264.125 266.5625 C262.74553045 267.9968543 261.36662803 269.43175423 259.98828125 270.8671875 C259.30717285 271.57069336 258.62606445 272.27419922 257.92431641 272.99902344 C255.33924323 275.68707973 252.82356194 278.43011134 250.3125 281.1875 C246.57317479 285.28084416 242.82448374 289.36499947 239.0625 293.4375 C238.56339111 293.97785889 238.06428223 294.51821777 237.55004883 295.07495117 C236.53879388 296.16964892 235.52748188 297.26429396 234.51611328 298.35888672 C232.50953341 300.53090442 230.50386308 302.70376073 228.49829102 304.87670898 C227.49755842 305.96093108 226.49674431 307.04507794 225.49584961 308.12915039 C223.01938674 310.81148255 220.54384728 313.49465476 218.0703125 316.1796875 C212.11725583 322.63930309 206.13649523 329.07203439 200.13671875 335.48828125 C196.60999261 339.2635872 193.10724151 343.05863037 189.625 346.875 C184.50952733 352.47122193 179.31789782 357.99320841 174.1159668 363.5090332 C169.70989985 368.18128379 165.31632789 372.86471352 160.9375 377.5625 C156.13334371 382.71619842 151.3205947 387.861673 146.5 393 C139.89969246 400.03624117 133.31391634 407.08591086 126.73388672 414.14111328 C123.82336349 417.26146303 120.91161713 420.38067102 118 423.5 C116.83332754 424.74999459 115.66666087 425.99999459 114.5 427.25 C112.16666667 429.75 109.83333333 432.25 107.5 434.75 C106.6339917 435.6778833 106.6339917 435.6778833 105.75048828 436.62451172 C104.58224039 437.87618261 103.41394602 439.12781013 102.24560547 440.37939453 C99.35275142 443.47847822 96.46067381 446.5782787 93.5703125 449.6796875 C86.74656947 456.99977325 79.901539 464.29930766 73.04052734 471.58447266 C68.4400091 476.46953612 63.84163631 481.35658541 59.25 486.25 C58.32489624 487.23589111 58.32489624 487.23589111 57.38110352 488.24169922 C52.8935278 493.03091552 48.44538181 497.85526368 44.00610352 502.68920898 C40.94217604 506.01367272 37.7974595 509.22982794 34.57421875 512.3984375 C32.81345515 514.18978508 31.15349171 516.0467523 29.5 517.9375 C28.9225 518.5975 28.345 519.2575 27.75 519.9375 C26.55221471 521.34917552 25.38662236 522.78862839 24.25 524.25 C21.50659427 527.67925716 19.6408847 529.72034122 15.5625 531.5 C9.98838208 530.71766766 7.64514481 527.04074192 4 523 C2.79093649 521.89427525 1.56166298 520.81021396 0.3125 519.75 C-3.32526937 516.61966015 -6.8564723 513.38769951 -10.375 510.125 C-14.16095752 506.61486573 -17.9596939 503.12448892 -21.8125 499.6875 C-31.74763803 490.77342836 -41.46442236 481.62954195 -50.83984375 472.12890625 C-53.45817101 469.54845714 -56.2112198 467.16545591 -59.00390625 464.77734375 C-62.0652964 462.05144841 -64.89965164 459.10858642 -67.77734375 456.19140625 C-70.4270144 453.57898932 -73.21172803 451.16697379 -76.03515625 448.74609375 C-78.81561832 446.27518611 -81.39118218 443.6183306 -84 440.96875 C-85.93891002 439.06013545 -87.93699551 437.27289448 -90 435.5 C-93.42782597 432.55421205 -96.61134817 429.43824653 -99.75 426.1875 C-101.69817315 424.29344277 -103.68714327 422.51049805 -105.73828125 420.73046875 C-109.99449971 417.03321725 -114.09832618 413.19265471 -118.1875 409.3125 C-123.26554151 404.51264686 -128.35439056 399.72738033 -133.5 395 C-143.86491666 385.46328876 -154.21677788 375.90346307 -164.1015625 365.8671875 C-166.59827209 363.41157601 -169.24416802 361.15658764 -171.90234375 358.87890625 C-175.26335831 355.86838855 -178.38453838 352.6229902 -181.5546875 349.4140625 C-184.29123479 346.71248706 -187.14979366 344.20921265 -190.0703125 341.7109375 C-192.83970162 339.25548723 -195.40035124 336.60903661 -197.99609375 333.97265625 C-200.58246151 331.42662171 -203.3153528 329.07978443 -206.06640625 326.71484375 C-208.53094869 324.52911823 -210.818004 322.1951192 -213.12402344 319.84472656 C-214.93908469 318.05990058 -216.80899205 316.39042908 -218.73828125 314.73046875 C-222.8145856 311.18605984 -226.76199492 307.52234492 -230.6875 303.8125 C-232.08819371 302.49442181 -233.48924036 301.17671858 -234.890625 299.859375 C-235.58091797 299.21033203 -236.27121094 298.56128906 -236.98242188 297.89257812 C-239.95589401 295.10332885 -242.9437496 292.32995257 -245.9375 289.5625 C-246.72519775 288.83015137 -246.72519775 288.83015137 -247.52880859 288.08300781 C-251.39216883 284.50722745 -255.3830558 281.11090495 -259.48828125 277.81640625 C-261 276 -261 276 -261.453125 273.515625 C-260.87739171 270.3193126 -259.83207847 269.34580128 -257.4375 267.1875 C-253.99173647 264.03727954 -250.94812385 260.69047442 -247.89819336 257.1652832 C-244.70860621 253.52689755 -241.38437746 250.01728202 -238.0625 246.5 C-237.06573242 245.43845703 -237.06573242 245.43845703 -236.04882812 244.35546875 C-232.0434866 240.10537793 -227.97006442 235.93902615 -223.80834961 231.84179688 C-221.95733107 229.95654186 -220.22099413 228.00407789 -218.5 226 C-215.48237647 222.48858352 -212.26640919 219.24692598 -208.96875 216 C-207.06013545 214.06108998 -205.27289448 212.06300449 -203.5 210 C-200.48358077 206.48998489 -197.26904868 203.24948724 -193.97265625 200.00390625 C-191.42662171 197.41753849 -189.07978443 194.6846472 -186.71484375 191.93359375 C-184.49830603 189.43430862 -182.12837719 187.11718116 -179.74609375 184.77734375 C-177.93522357 182.93406426 -176.24678646 181.02177201 -174.5625 179.0625 C-172.14382221 176.25423653 -169.64100317 173.60029407 -167 171 C-164.37959391 168.41990785 -161.89676588 165.78896393 -159.5 163 C-157.10323412 160.21103607 -154.62040609 157.58009215 -152 155 C-149.44130741 152.48044611 -147.01829389 149.91881218 -144.6875 147.1875 C-141.77749568 143.79804417 -138.67840441 140.635482 -135.5 137.5 C-131.75968688 133.81006147 -128.21760653 130.02496306 -124.80859375 126.02734375 C-121.82716225 122.68530714 -118.59906354 119.5918241 -115.4140625 116.4453125 C-112.71248706 113.70876521 -110.20921265 110.85020634 -107.7109375 107.9296875 C-105.25548723 105.16029838 -102.60903661 102.59964876 -99.97265625 100.00390625 C-97.42662171 97.41753849 -95.07978443 94.6846472 -92.71484375 91.93359375 C-90.49830603 89.43430862 -88.12837719 87.11718116 -85.74609375 84.77734375 C-83.93522357 82.93406426 -82.24678646 81.02177201 -80.5625 79.0625 C-78.14382221 76.25423653 -75.64100317 73.60029407 -73 71 C-70.37959391 68.41990785 -67.89676588 65.78896393 -65.5 63 C-63.10323412 60.21103607 -60.62040609 57.58009215 -58 55 C-55.4207494 52.46027814 -52.97782611 49.87548686 -50.625 47.125 C-47.88378551 43.93317491 -44.99314112 40.95697023 -42 38 C-39.04816975 35.08373397 -36.19611141 32.15394165 -33.5 29 C-30.80388859 25.84605835 -27.95183025 22.91626603 -25 20 C-20.15701015 15.20837519 -15.68519709 10.19991155 -11.30859375 4.984375 C-10.77363281 4.35015625 -10.23867188 3.7159375 -9.6875 3.0625 C-9.21699219 2.49660156 -8.74648438 1.93070312 -8.26171875 1.34765625 C-5.55213721 -1.54647883 -3.59557181 -1.16267066 0 0 Z M-1 144 C-2.94757978 146.05878418 -4.72453589 148.11295556 -6.5 150.3125 C-11.2559014 156.04518311 -16.20909621 161.32762355 -21.53515625 166.5390625 C-24.30353859 169.30305755 -26.85236264 172.19848195 -29.390625 175.171875 C-31.56371785 177.64033969 -33.90472369 179.91535363 -36.25 182.21875 C-38.08242487 184.08389674 -39.79353135 186.01927746 -41.5 188 C-43.7455794 190.60647609 -46.04551512 193.08934521 -48.5 195.5 C-50.91332717 197.87042357 -53.17271853 200.30736308 -55.375 202.875 C-57.96634205 205.8846753 -60.67254783 208.71088616 -63.5 211.5 C-66.24500542 214.20803565 -68.8727091 216.94169249 -71.375 219.875 C-75.0684794 224.18692246 -79.09772597 228.13072066 -83.15625 232.09375 C-85.22560057 234.15768059 -87.13987631 236.30692638 -89.03515625 238.53125 C-94.3445968 244.66299396 -100.18421719 250.28979163 -105.9375 256 C-107.11026009 257.16773374 -108.28278798 258.33570074 -109.45507812 259.50390625 C-112.30071689 262.33863234 -115.14947453 265.17018824 -118 268 C-114.47094712 271.54645562 -110.87785744 274.99764851 -107.1875 278.375 C-101.97868491 283.16482865 -96.79215849 287.97775299 -91.625 292.8125 C-90.64503052 293.72684814 -90.64503052 293.72684814 -89.64526367 294.65966797 C-85.89139445 298.17614401 -82.2156114 301.75271002 -78.61108398 305.42236328 C-76.94730432 307.05160168 -75.21748506 308.56183332 -73.4375 310.0625 C-69.42258372 313.51391926 -65.72133095 317.23939379 -62 321 C-57.74789902 325.29688351 -53.47234557 329.4551787 -48.85546875 333.36328125 C-45.83312884 336.02930319 -43.05565761 338.93670448 -40.2265625 341.8046875 C-37.55366826 344.44006743 -34.74631697 346.87766489 -31.8984375 349.3203125 C-30.02029247 350.98204576 -28.25694484 352.71125525 -26.5 354.5 C-24.22987417 356.81075448 -21.90875506 358.96901642 -19.4375 361.0625 C-15.42246069 364.51402502 -11.72237413 368.24027928 -8 372 C-2.27404202 377.77675549 -2.27404202 377.77675549 3.625 383.375 C4.19476562 383.89835938 4.76453125 384.42171875 5.3515625 384.9609375 C7.23921187 386.35549237 7.23921187 386.35549237 11 386 C13.41422354 383.8884246 13.41422354 383.8884246 15.8125 381 C16.78913695 379.89344653 17.767072 378.78803783 18.74609375 377.68359375 C19.53089111 376.79003174 19.53089111 376.79003174 20.33154297 375.87841797 C23.28672531 372.5513514 26.33070061 369.30787854 29.375 366.0625 C30.32403198 365.04833008 30.32403198 365.04833008 31.29223633 364.01367188 C35.97508439 359.03229895 40.77664811 354.18542446 45.63916016 349.38012695 C49.03669127 346.00858382 52.23255905 342.53787597 55.328125 338.890625 C58.01385808 335.85348759 60.93523342 333.0571603 63.8203125 330.2109375 C65.76233548 328.24107189 67.58061671 326.22846367 69.375 324.125 C72.26216792 320.75439931 75.34273823 317.61525003 78.5 314.5 C82.14094582 310.9023045 85.61562904 307.23103595 88.9453125 303.34375 C96.6013374 294.61064175 104.66874837 286.24390577 112.93212891 278.0871582 C116.3190104 274.72851033 119.51939339 271.26331317 122.59765625 267.62109375 C123.99806325 266.00223886 125.46883518 264.49481669 127 263 C125.43028969 258.97702988 122.5906075 256.54824706 119.4375 253.75 C118.25702524 252.68055585 117.0773802 251.61019534 115.8984375 250.5390625 C115.26776367 249.96833008 114.63708984 249.39759766 113.98730469 248.80957031 C110.48001335 245.61595319 107.01925226 242.37314164 103.5625 239.125 C102.84578125 238.45186768 102.1290625 237.77873535 101.390625 237.08520508 C96.04935927 232.04462658 90.84469885 226.88209897 85.68041992 221.66113281 C82.26284011 218.2191666 78.76001632 214.96876916 75.0546875 211.8359375 C71.70240362 208.84055076 68.58833958 205.60810119 65.43017578 202.41064453 C62.03379727 198.98841347 58.53202909 195.76693385 54.859375 192.640625 C52.18986304 190.28517327 49.7219299 187.74771311 47.25 185.1875 C44.62762763 182.6379713 41.87921644 180.26276674 39.11865234 177.86474609 C35.77746293 174.92397578 32.54716504 171.86939179 29.3125 168.8125 C27.91569716 167.49834433 26.51855674 166.1845474 25.12109375 164.87109375 C24.43128418 164.22253418 23.74147461 163.57397461 23.03076172 162.90576172 C19.98896463 160.05119715 16.93586388 157.2090999 13.875 154.375 C13.36751221 153.90296143 12.86002441 153.43092285 12.3371582 152.94458008 C10.90204345 151.61815363 9.45118044 150.30883032 8 149 C7.47438477 148.52336914 6.94876953 148.04673828 6.40722656 147.55566406 C3.19670553 144.61165979 3.19670553 144.61165979 -1 144 Z " fill="#ED2626" transform="translate(637,328)"/>
<path d="M0 0 C5.13300925 3.01238043 7.96691306 8.37132611 10.5625 13.5625 C11.38585727 19.07586705 11.07716941 23.50910833 8.125 28.3125 C3.65166383 34.28752349 -3.01706409 39.17116827 -10.4375 40.5625 C-13.67739915 40.8324916 -16.35504258 40.6370719 -19.4375 39.5625 C-20.95802385 38.21183648 -22.43441891 36.81062211 -23.875 35.375 C-27.6929126 32.11751494 -30.22540421 31.08113856 -35.28735352 31.4621582 C-38.470351 31.87623236 -41.61308436 32.41502335 -44.76220703 33.03564453 C-47.58329521 33.591212 -50.41158769 34.07645234 -53.24609375 34.55859375 C-104.8397152 43.73024375 -155.27133834 66.30041193 -196.70947266 98.24755859 C-199.14072442 100.09761821 -201.63234214 101.85891774 -204.125 103.625 C-246.49386274 134.37557549 -279.06126373 178.79198674 -301.51953125 225.67480469 C-302.4119821 227.51002543 -303.34139078 229.32150154 -304.28125 231.1328125 C-320.70130832 263.45078147 -330.18484053 300.73946461 -334.4375 336.5625 C-334.5398999 337.40756104 -334.6422998 338.25262207 -334.74780273 339.12329102 C-335.66012972 347.68817473 -335.63885456 356.27230641 -335.625 364.875 C-335.62373108 365.6865152 -335.62246216 366.4980304 -335.62115479 367.33413696 C-335.48729469 412.59599495 -328.5733791 456.1172571 -312.4375 498.5625 C-311.98818115 499.75069336 -311.98818115 499.75069336 -311.52978516 500.96289062 C-300.35265069 530.03700323 -284.19967708 557.74106245 -265.4375 582.5625 C-265.01049805 583.13081543 -264.58349609 583.69913086 -264.14355469 584.28466797 C-258.27771512 592.0565845 -252.05157832 599.35843816 -245.359375 606.4296875 C-243.19953859 608.71316458 -241.13884717 611.06259384 -239.09375 613.44921875 C-235.36453536 617.73302409 -231.34067083 621.63081472 -227.1875 625.5 C-226.06553223 626.54921631 -226.06553223 626.54921631 -224.92089844 627.61962891 C-219.27718328 632.86056922 -213.51563715 637.82804599 -207.4375 642.5625 C-206.50679687 643.31144531 -205.57609375 644.06039062 -204.6171875 644.83203125 C-168.72122201 673.24584537 -128.81711057 692.44003226 -85.3125 705.9375 C-84.06350418 706.32651489 -84.06350418 706.32651489 -82.78927612 706.72338867 C-69.32687639 710.89771437 -55.95183354 714.33919293 -41.9375 716.125 C-40.98681641 716.24721924 -40.03613281 716.36943848 -39.05664062 716.49536133 C-30.70284467 717.51156191 -22.33215393 718.17587685 -13.9375 718.75 C-12.72255859 718.83386963 -11.50761719 718.91773926 -10.25585938 719.00415039 C3.66543358 719.8794243 17.46057167 719.62931685 31.375 718.75 C32.08527344 718.70548706 32.79554688 718.66097412 33.52734375 718.6151123 C83.41466474 715.43879725 131.31427585 702.1416362 175.5625 678.5625 C176.25972168 678.19721191 176.95694336 677.83192383 177.67529297 677.45556641 C194.79803 668.45061353 210.5611501 657.52943145 225.71875 645.53125 C228.08949658 643.66010409 230.46967857 641.9425034 233.03125 640.34375 C238.26216528 636.99057289 238.26216528 636.99057289 241.04248047 631.65380859 C241.50315074 627.94562423 241.51067346 624.27068202 241.48828125 620.5390625 C241.59959361 614.57506366 243.1298904 611.12500623 247.171875 606.8671875 C248.89514977 605.28878981 250.65838296 603.91476011 252.5625 602.5625 C253.42875 601.94375 254.295 601.325 255.1875 600.6875 C262.42751884 598.27416039 270.03394902 598.43178753 277 601.625 C283.85857009 605.57758504 288.20521326 610.96679829 290.5625 618.5625 C291.51582248 625.8845463 290.18629531 632.01197788 285.79296875 637.95703125 C282.22404369 642.18105537 278.99652425 645.994993 273.5625 647.5625 C268.60876773 647.90716623 263.72104726 648.04217717 258.85546875 646.9609375 C256.41950882 646.29796413 256.41950882 646.29796413 253.9375 647.9375 C250.03746213 650.83523806 246.33206851 654.00246368 242.58203125 657.08984375 C225.7225558 670.89585663 207.58554447 682.94243432 188.5625 693.5625 C187.85013184 693.96388184 187.13776367 694.36526367 186.40380859 694.77880859 C157.41264443 710.99202886 125.66859172 722.331901 93.5625 730.5625 C92.76859863 730.76713867 91.97469727 730.97177734 91.15673828 731.18261719 C49.80879277 741.62668718 5.67450652 742.3321271 -36.4375 736.5625 C-37.48846863 736.42038086 -37.48846863 736.42038086 -38.56066895 736.27539062 C-67.8396043 732.28791726 -95.80279845 725.14229595 -123.4375 714.5625 C-124.55229736 714.13646484 -125.66709473 713.71042969 -126.81567383 713.27148438 C-135.82437992 709.77661686 -144.50248834 705.79234918 -153.125 701.4375 C-153.77092102 701.1130188 -154.41684204 700.7885376 -155.08233643 700.45422363 C-185.15612173 685.31337975 -214.80039709 666.2972041 -238.1796875 641.79296875 C-240.13235359 639.86395087 -242.12902678 638.08994112 -244.2109375 636.3046875 C-248.47151695 632.6051781 -252.346254 628.62855329 -256.1875 624.5 C-256.88214355 623.75613037 -257.57678711 623.01226074 -258.29248047 622.24584961 C-264.54220883 615.51498566 -270.61885248 608.6696419 -276.4375 601.5625 C-276.99147461 600.88638672 -277.54544922 600.21027344 -278.11621094 599.51367188 C-287.15347116 588.39476722 -295.0821638 576.85093318 -302.4375 564.5625 C-303.15969727 563.37527344 -303.15969727 563.37527344 -303.89648438 562.1640625 C-330.56184708 518.16087384 -347.7609697 467.52072476 -353.14501953 416.34130859 C-353.33615008 414.52540886 -353.53722787 412.7105212 -353.74951172 410.89697266 C-363.39021128 327.96868021 -342.93409946 237.48471104 -293.4375 169.5625 C-292.52182062 168.28798652 -291.60645732 167.01324591 -290.69140625 165.73828125 C-272.80798143 140.96539231 -252.96150472 116.21642653 -229.4375 96.5625 C-228.93927734 96.14516602 -228.44105469 95.72783203 -227.92773438 95.29785156 C-217.56897129 86.67366396 -206.68658413 78.97705792 -195.4375 71.5625 C-194.13135742 70.69939209 -194.13135742 70.69939209 -192.79882812 69.81884766 C-150.68742578 42.13449982 -102.43316391 21.33076338 -52.43359375 13.20703125 C-51.43501343 13.04343864 -51.43501343 13.04343864 -50.41625977 12.87654114 C-47.20218284 12.35546083 -43.98781817 11.86687846 -40.76220703 11.42211914 C-32.44913392 10.21048354 -32.44913392 10.21048354 -26.4375 4.5625 C-19.1305876 -2.10463666 -9.44160366 -4.02548993 0 0 Z M248.5625 616.5625 C247.31916032 620.29251905 247.03956659 623.68837365 247.5625 627.5625 C250.72479028 633.76545401 256.24926262 638.63685341 262.5625 641.5625 C267.46500375 642.19800975 270.7249466 641.50006191 274.9296875 638.83203125 C279.6954098 635.12662516 283.87997795 629.8234387 285.125 623.875 C283.93186997 616.84878981 279.94086011 611.15073328 274.25 606.9375 C262.84249431 600.20803026 254.77126728 606.70151667 248.5625 616.5625 Z " fill="#262B72" transform="translate(626.4375,227.4375)"/>
<path d="M0 0 C6.1082376 3.50977362 9.55310492 8.74714159 11.6875 15.375 C12.5339816 21.09391228 11.65881032 25.43131677 9.05078125 30.55078125 C4.25704163 36.96532681 -2.81619146 38.74575479 -10.3125 40.375 C-13.65002207 40.77089226 -16.22546604 40.77486293 -19.3125 39.375 C-21.18521547 37.3855005 -22.68654938 35.4153587 -24.12109375 33.08984375 C-28.53244637 29.63782271 -34.38539093 31.14243 -39.65649414 31.77856445 C-43.48803891 32.32407866 -47.30684788 32.93163716 -51.125 33.5625 C-52.54404644 33.79221048 -53.96315575 34.02153292 -55.38232422 34.25048828 C-58.28623476 34.72098164 -61.18910408 35.19732132 -64.09130859 35.67822266 C-67.99223624 36.32435996 -71.89633882 36.94965406 -75.80078125 37.57421875 C-111.32469912 43.35914898 -145.65907696 52.65527603 -179.3125 65.375 C-180.4380127 65.79652344 -181.56352539 66.21804687 -182.72314453 66.65234375 C-239.7787329 88.11486171 -297.24208571 120.22837113 -343.16796875 160.6328125 C-346.08455632 163.19855253 -349.09063716 165.63668849 -352.125 168.0625 C-356.43702585 171.55890806 -360.3434633 175.29963958 -364.21484375 179.2734375 C-366.09953065 181.16163406 -368.02867096 182.9011282 -370.0625 184.625 C-378.21214845 191.63141119 -385.81925511 199.42975109 -392.7734375 207.6171875 C-394.3819055 209.45427024 -396.07088868 211.16407787 -397.8125 212.875 C-400.74744813 215.77116027 -403.48978599 218.7742918 -406.1796875 221.8984375 C-407.86159757 223.85142465 -409.55524906 225.79168465 -411.2578125 227.7265625 C-418.10500437 235.53044579 -424.69169214 243.47732478 -431.02148438 251.70605469 C-432.26726926 253.31652849 -433.5317523 254.91248482 -434.796875 256.5078125 C-451.19043548 277.33912024 -464.85164709 300.44628986 -477.74267578 323.56152344 C-478.81406815 325.48169849 -479.89080406 327.39889934 -480.97216797 329.31347656 C-496.09610517 356.16116195 -507.97864372 384.36703509 -518.3125 413.375 C-518.88145996 414.96272217 -518.88145996 414.96272217 -519.46191406 416.58251953 C-529.95042786 446.29689496 -537.73226007 477.54863917 -542.875 508.625 C-543.08987061 509.92115234 -543.30474121 511.21730469 -543.52612305 512.55273438 C-544.18567358 516.82044571 -544.76253372 521.09208554 -545.3125 525.375 C-545.50465088 526.81342758 -545.50465088 526.81342758 -545.70068359 528.28091431 C-548.19778752 547.33769231 -548.80601196 566.11643002 -548.69942474 585.29666519 C-548.68728986 587.60242962 -548.67987923 589.90817196 -548.67340088 592.21395874 C-548.5954617 616.35278005 -548.11459048 640.37588997 -545.3125 664.375 C-545.21775391 665.19202393 -545.12300781 666.00904785 -545.02539062 666.85083008 C-540.49690982 705.30961927 -532.05754557 742.72365578 -519.93438721 779.487854 C-519.36440463 781.21749296 -518.80077862 782.94922329 -518.23779297 784.68115234 C-509.01598252 812.74615007 -497.21999156 841.266673 -482.66503906 866.98486328 C-481.14860745 869.66462239 -479.66432433 872.36109786 -478.1796875 875.05859375 C-471.31783911 887.44418929 -464.03926743 899.51127091 -456.3125 911.375 C-455.59449219 912.48101563 -454.87648438 913.58703125 -454.13671875 914.7265625 C-442.82799809 931.90493978 -430.57043043 948.65047787 -417.3125 964.375 C-416.83780273 964.93993164 -416.36310547 965.50486328 -415.87402344 966.08691406 C-408.23871921 975.18409998 -408.23871921 975.18409998 -399.97900391 983.70776367 C-398.3580292 985.32945079 -396.88882891 987.01014876 -395.41015625 988.76171875 C-390.61167381 994.27779616 -385.44798227 999.42555744 -380.28027344 1004.5925293 C-378.57455402 1006.30043056 -376.87700973 1008.01618045 -375.1796875 1009.73242188 C-369.24014457 1015.70140639 -363.21670274 1021.26923188 -356.61328125 1026.50512695 C-354.75286805 1028.01710751 -353.07985332 1029.52735976 -351.4296875 1031.2578125 C-347.06515916 1035.67163238 -347.06515916 1035.67163238 -341.31640625 1037.61523438 C-337.60271346 1037.60516107 -333.95813579 1037.17411426 -330.2734375 1036.74609375 C-323.83732255 1036.14310468 -319.99052325 1037.40998452 -314.84765625 1041.18359375 C-309.63330763 1045.54124054 -306.65246044 1048.67958584 -306.01171875 1055.64453125 C-305.97937696 1065.4225321 -306.7109342 1072.44973476 -313.5234375 1079.765625 C-318.1053115 1083.88731079 -322.8991262 1086.62279142 -329.125 1087.0625 C-336.73632248 1086.63503103 -344.30857321 1082.70074012 -349.875 1077.5625 C-353.20961809 1073.26411945 -353.33317518 1067.86681754 -354.07617188 1062.64526367 C-355.10910199 1056.11454875 -357.21718907 1052.65925957 -362.3125 1048.375 C-363.10398437 1047.64152344 -363.89546875 1046.90804688 -364.7109375 1046.15234375 C-367.8006356 1043.30506811 -370.96122641 1040.54626058 -374.13598633 1037.79443359 C-378.88712604 1033.66185049 -383.53703157 1029.43779224 -388.125 1025.125 C-388.817146 1024.4745874 -389.50929199 1023.8241748 -390.22241211 1023.15405273 C-397.97246102 1015.84429646 -405.66732886 1008.49433582 -412.5859375 1000.37890625 C-414.52991046 998.12266614 -416.54573518 995.94136107 -418.5625 993.75 C-423.11092034 988.70902653 -427.27983221 983.42425016 -431.4375 978.0625 C-433.80276729 975.01407649 -436.21683834 972.00910832 -438.64746094 969.01269531 C-450.25759231 954.67076833 -461.0430735 939.70080154 -471.3125 924.375 C-471.81072266 923.63765625 -472.30894531 922.9003125 -472.82226562 922.140625 C-496.14582759 887.5183512 -515.35568784 849.33283096 -530.3125 810.375 C-530.69873535 809.39337891 -531.0849707 808.41175781 -531.48291016 807.40039062 C-549.6482619 761.04147137 -560.15424686 711.50516228 -565.625 662.125 C-565.70631165 661.39371887 -565.78762329 660.66243774 -565.87139893 659.90899658 C-567.85496285 641.82247678 -568.51858193 623.87473419 -568.5 605.6875 C-568.49939575 604.59395203 -568.4987915 603.50040405 -568.49816895 602.37371826 C-568.45579571 573.95523272 -567.50847891 545.933153 -562.87451172 517.85009766 C-562.28595841 514.21088486 -561.75059457 510.56644169 -561.22265625 506.91796875 C-558.57876875 489.04646986 -554.80921967 471.65817366 -550.29150391 454.17871094 C-549.40671447 450.74105023 -548.54934757 447.29791544 -547.69921875 443.8515625 C-541.03486404 417.40663637 -532.18016506 390.9940974 -520.65625 366.26269531 C-519.1353607 362.99433073 -517.64587561 359.71241412 -516.15625 356.4296875 C-501.22242578 323.68600907 -483.72930464 292.28647224 -462.57421875 263.125 C-461.31850571 261.38332991 -460.07873177 259.63141851 -458.84375 257.875 C-452.93605828 249.48607775 -446.73621134 241.37479827 -440.3125 233.375 C-439.57386719 232.45203125 -438.83523438 231.5290625 -438.07421875 230.578125 C-428.40804402 218.63235878 -418.223365 207.1548748 -407.74462891 195.92041016 C-406.34346126 194.4084103 -404.9563787 192.88484689 -403.57421875 191.35546875 C-394.98226269 181.85574778 -386.16710264 172.4695577 -376.390625 164.171875 C-374.23180939 162.30522992 -372.13731349 160.37639617 -370.04614258 158.43457031 C-364.94832031 153.70461553 -359.75435631 149.16426787 -354.33203125 144.8046875 C-352.1058284 143.01335739 -349.89761884 141.20761697 -347.69921875 139.3828125 C-283.63804321 86.39582811 -206.3625966 48.76803112 -126.3125 27.375 C-125.38131348 27.12008789 -124.45012695 26.86517578 -123.49072266 26.60253906 C-97.4315493 19.49254995 -70.57989815 14.76450256 -43.75146484 11.70458984 C-32.93444771 10.74146742 -32.93444771 10.74146742 -24.3125 4.9375 C-23.6525 4.091875 -22.9925 3.24625 -22.3125 2.375 C-15.56296279 -2.53663506 -7.64193203 -3.42519741 0 0 Z M-342.125 1048.75 C-346.73995235 1054.28794281 -347.98346 1058.12184018 -347.7890625 1065.296875 C-346.89527416 1071.06986854 -343.96732678 1075.08384812 -339.6015625 1078.8515625 C-336.65538958 1080.81123408 -334.39161407 1081.37356156 -330.875 1081.4375 C-322.68727268 1078.99554624 -317.28107166 1074.3675978 -312.9375 1067.0625 C-311.68736016 1061.68689869 -312.47325108 1056.99133126 -315 1052.125 C-318.51980683 1047.93928377 -321.64123073 1044.38637851 -327.1875 1043.375 C-333.12352537 1042.9891016 -337.64570958 1044.96748809 -342.125 1048.75 Z " fill="#262B72" transform="translate(613.3125,1.625)"/>
<path d="M0 0 C5.37462039 2.94352824 12.29772723 9.09751887 14.21484375 15.08203125 C15.64876117 22.54371264 15.56508749 28.62588751 11.51171875 35.21484375 C7.20321734 41.19170698 3.99625494 44.85763238 -3.42578125 46.33984375 C-6.69365039 47.22052097 -8.01305618 47.6772931 -9.74804688 50.64990234 C-10.10576172 51.62781738 -10.46347656 52.60573242 -10.83203125 53.61328125 C-11.45380249 55.23810425 -11.45380249 55.23810425 -12.08813477 56.89575195 C-12.50893311 58.01167725 -12.92973145 59.12760254 -13.36328125 60.27734375 C-14.22346941 62.3260374 -15.09715499 64.36911721 -15.984375 66.40625 C-16.43723877 67.44668457 -16.89010254 68.48711914 -17.35668945 69.55908203 C-34.12651504 107.65763085 -55.17749756 143.1434136 -80.36328125 176.27734375 C-80.85940918 176.93275146 -81.35553711 177.58815918 -81.86669922 178.26342773 C-90.00768162 188.99211371 -98.40726548 199.39963913 -107.58984375 209.2578125 C-109.56283685 211.37912439 -111.45137341 213.55510496 -113.328125 215.76171875 C-118.41112587 221.5934805 -123.93808452 227.00107114 -129.41479492 232.45922852 C-131.29656399 234.3356385 -133.17292863 236.21733344 -135.04882812 238.09960938 C-140.46168977 243.51543054 -145.85947033 248.88768177 -151.6965332 253.85131836 C-153.85622994 255.69909756 -155.91132324 257.64572352 -157.97509766 259.59912109 C-165.08703951 266.31174772 -172.56269406 272.38801708 -180.36328125 278.27734375 C-181.05099609 278.80021973 -181.73871094 279.3230957 -182.44726562 279.86181641 C-255.49111617 335.23324027 -340.99818595 373.62390985 -586.1796875 390.18359375 C-649.88296813 381.01379099 -709.78626692 363.16882883 -767.36328125 334.27734375 C-768.41596191 333.74963379 -769.46864258 333.22192383 -770.55322266 332.67822266 C-796.88015128 319.39878997 -822.64424371 304.10136652 -845.67871094 285.61572266 C-847.6645769 284.03796654 -849.67276854 282.49112894 -851.68359375 280.9453125 C-867.22351163 268.98712827 -882.20923855 256.57149878 -896.00390625 242.60546875 C-898.02442188 240.61171492 -900.07823313 238.7410624 -902.23828125 236.90234375 C-909.90753358 230.32203191 -917.06272816 223.00891224 -923.60546875 215.3125 C-925.71592265 212.86906337 -927.91621004 210.51815554 -930.11328125 208.15234375 C-935.35007317 202.40214086 -940.14683705 196.37106249 -944.88183594 190.20458984 C-946.42363223 188.19883178 -947.97510879 186.20081265 -949.52734375 184.203125 C-955.10344366 176.99947899 -960.54433757 169.71794174 -965.80078125 162.27734375 C-966.30802734 161.56513672 -966.81527344 160.85292969 -967.33789062 160.11914062 C-969.89764209 156.49311085 -972.16022388 152.8573454 -974.30078125 148.96484375 C-977.39135599 144.16341513 -981.94400247 143.56512842 -987.234375 142.2109375 C-993.81893641 140.24625563 -997.04856259 136.27615696 -1000.30078125 130.40234375 C-1002.86344387 124.69807813 -1003.59038799 120.66228649 -1001.44140625 114.734375 C-998.5499607 108.37882747 -995.44760041 104.19419669 -989.0078125 101.171875 C-982.68245764 99.03227934 -975.27043418 99.52028088 -969.1484375 102.16015625 C-964.70650287 104.9400103 -961.28731413 109.4319582 -959.36328125 114.27734375 C-959.09765625 117.08203125 -959.09765625 117.08203125 -959.11328125 120.15234375 C-959.10554688 121.66441406 -959.10554688 121.66441406 -959.09765625 123.20703125 C-959.36328125 126.27734375 -959.36328125 126.27734375 -960.72265625 129.1171875 C-961.46926822 132.80016973 -961.12014935 133.28409794 -959.20703125 136.3515625 C-958.11416497 137.90483208 -956.99783056 139.44175446 -955.86328125 140.96484375 C-955.2717627 141.79064941 -954.68024414 142.61645508 -954.07080078 143.46728516 C-952.18736802 146.08506345 -950.27568816 148.68068561 -948.36328125 151.27734375 C-947.16101292 152.94665948 -945.96045572 154.6172091 -944.76171875 156.2890625 C-938.76850983 164.59442277 -932.57968106 172.64644521 -925.86328125 180.37890625 C-923.52531834 183.089482 -921.28264263 185.85431166 -919.05078125 188.65234375 C-913.75081061 195.15942514 -907.98444162 201.21003986 -902.22021484 207.30273438 C-900.34413152 209.29770702 -898.48612007 211.30808453 -896.6328125 213.32421875 C-888.75068196 221.90947321 -888.75068196 221.90947321 -880.140625 229.75 C-878.15974777 231.45224834 -876.36791017 233.27671571 -874.55078125 235.15234375 C-870.70997315 239.04545857 -866.58455566 242.46051159 -862.3203125 245.87890625 C-859.81205835 247.91334224 -857.36154908 249.99818032 -854.92358398 252.11572266 C-846.13925639 259.71112154 -836.7798591 266.49346156 -827.36328125 273.27734375 C-826.63560547 273.80505371 -825.90792969 274.33276367 -825.15820312 274.87646484 C-808.5168077 286.92884621 -791.16523606 297.6918801 -773.21777344 307.68701172 C-771.27024213 308.77204584 -769.32569637 309.86245184 -767.38378906 310.95751953 C-750.18894031 320.63064578 -732.6123555 328.8501793 -714.36328125 336.27734375 C-712.57881592 337.00630859 -712.57881592 337.00630859 -710.75830078 337.75 C-662.75076427 357.15125632 -611.89989201 368.12319212 -560.36328125 372.27734375 C-559.35080322 372.37233154 -558.3383252 372.46731934 -557.29516602 372.56518555 C-545.19509255 373.60455202 -533.06131242 373.47626423 -520.92578125 373.46484375 C-519.74554382 373.4642395 -518.5653064 373.46363525 -517.3493042 373.4630127 C-498.94349749 373.43743651 -480.69054996 373.12085439 -462.36328125 371.27734375 C-460.55682129 371.09993652 -460.55682129 371.09993652 -458.71386719 370.91894531 C-425.6272736 367.51768157 -393.01141855 360.4551728 -361.36328125 350.27734375 C-360.67167908 350.05626953 -359.9800769 349.83519531 -359.26751709 349.60742188 C-337.72135094 342.70697979 -316.94588409 334.6641299 -296.36328125 325.27734375 C-294.7411138 324.55157265 -293.11874732 323.8262461 -291.49609375 323.1015625 C-244.00092466 301.60747795 -199.33207184 270.26254653 -161.18359375 234.87890625 C-158.66849257 232.55888217 -156.11783212 230.28939847 -153.55078125 228.02734375 C-143.93455487 219.39141229 -134.6616774 210.19183893 -126.36328125 200.27734375 C-124.96863966 198.64981369 -123.569768 197.02596288 -122.17114258 195.40185547 C-120.59815756 193.57225278 -119.03095168 191.73783485 -117.46484375 189.90234375 C-115.5346505 187.64108949 -113.59324894 185.39083184 -111.63671875 183.15234375 C-103.64048349 173.94598699 -96.48268152 164.16970586 -89.36328125 154.27734375 C-88.78674805 153.48440918 -88.21021484 152.69147461 -87.61621094 151.87451172 C-65.85868915 121.90417045 -48.25088058 89.26411966 -33.67822266 55.26806641 C-32.84291006 53.36821879 -31.96886986 51.48457832 -31.04443359 49.62646484 C-28.74450711 45.26975406 -28.74450711 45.26975406 -28.98046875 40.53515625 C-29.43679688 39.79007813 -29.893125 39.045 -30.36328125 38.27734375 C-33.45978222 31.02203857 -35.90693585 24.23128919 -34.36328125 16.27734375 C-28.1800921 2.40340343 -14.75308845 -4.51127498 0 0 Z M-21.390625 9.15625 C-25.74001853 13.98594466 -27.75204554 17.35509138 -27.640625 24.08984375 C-26.97192928 29.36406351 -24.38159446 33.66673056 -20.42578125 37.15234375 C-15.34639254 40.67681755 -11.61199204 42.01871622 -5.36328125 41.27734375 C1.1913665 38.30688541 5.72324588 33.88774439 8.63671875 27.27734375 C9.68429871 22.00922529 8.89270525 18.01951793 6.07421875 13.46484375 C2.20995397 8.26713548 -1.50348954 6.05728694 -7.80078125 4.33984375 C-13.33691363 4.24271862 -17.27584353 5.34274347 -21.390625 9.15625 Z " fill="#262B72" transform="translate(1155.36328125,753.72265625)"/>
<path d="M0 0 C3.97004816 2.27216593 6.92625896 5.35260675 8.52734375 9.71484375 C9.84407954 16.0808804 10.48016109 24.00407261 7.5625 30 C2.96583041 35.38146683 -1.91664979 39.05309227 -9.0625 40 C-12.34149083 40.16267861 -15.08984233 39.86678611 -18.25 39 C-25.38835399 37.09643894 -30.22248876 39.84788098 -36.3125 43.3125 C-37.10011719 43.7561792 -37.88773438 44.1998584 -38.69921875 44.65698242 C-46.43287305 49.10213496 -53.65635172 54.15921119 -60.84375 59.42919922 C-63.03767016 61.02744224 -65.24994076 62.59668541 -67.46875 64.16015625 C-81.13372266 73.82630777 -94.14984247 84.21757394 -106.41015625 95.62109375 C-108.46284572 97.50659584 -110.54284055 99.32908138 -112.65625 101.14453125 C-117.79724577 105.63033159 -122.61289068 110.42886913 -127.4375 115.25 C-128.32759766 116.12785156 -129.21769531 117.00570312 -130.13476562 117.91015625 C-136.1964897 123.95859678 -141.67199011 130.30185397 -147 137 C-147.90864299 138.09717299 -148.82059387 139.19163056 -149.73828125 140.28125 C-158.7256224 151.08468599 -167.20365186 162.30547779 -175 174 C-175.66 174 -176.32 174 -177 174 C-177.21527344 174.80824219 -177.43054688 175.61648438 -177.65234375 176.44921875 C-179.38261062 181.0080958 -181.9078101 184.74171016 -184.5625 188.8125 C-236.88199729 271.33752876 -258.41359911 370.38472292 -238.171875 518.77832031 C-236.4068184 526.2776478 -234.29104725 533.6459948 -232 541 C-231.80664062 541.62588013 -231.61328125 542.25176025 -231.4140625 542.89660645 C-225.78790337 561.08258721 -219.50357802 578.75800608 -211.40039062 596.01269531 C-209.97768662 599.04759877 -208.58960194 602.09683839 -207.203125 605.1484375 C-197.18717408 626.89633503 -185.07316974 647.62188626 -171 667 C-170.45633789 667.75716309 -169.91267578 668.51432617 -169.35253906 669.29443359 C-159.90468409 682.43870255 -149.91463082 694.77988332 -139.02734375 706.7578125 C-137.26032801 708.71208424 -135.53086471 710.69059737 -133.8125 712.6875 C-119.80865389 728.68271872 -104.9533092 743.73707851 -87.93603516 756.53515625 C-85.84220783 758.11938878 -83.77089196 759.73067053 -81.69921875 761.34375 C-61.03073664 777.29741745 -38.97040884 791.59142671 -16 804 C-15.41004242 804.32368561 -14.82008484 804.64737122 -14.21224976 804.98086548 C-3.3276229 810.94636918 7.73166327 816.16667069 19.1875 820.9375 C20.00471527 821.27972595 20.82193054 821.6219519 21.66390991 821.97454834 C45.17887113 831.79235571 69.01404048 839.79213523 94 845 C95.56935303 845.32991943 95.56935303 845.32991943 97.17041016 845.66650391 C110.90998812 848.50264578 124.70632568 850.60753213 138.625 852.3125 C139.33027832 852.39985413 140.03555664 852.48720825 140.76220703 852.57720947 C151.86059528 854.10729334 151.86059528 854.10729334 163 854 C165.3141866 852.23849752 165.3141866 852.23849752 166.6875 849.6875 C169.27380518 845.53738239 171.38003871 843.74704418 176 842 C183.56519156 841.15942316 192.37294739 840.69317405 199 845 C204.86390545 849.71015529 208.62264303 854.78531278 209.875 862.3125 C210.48981382 870.10886244 207.42448069 876.32181058 202.59375 882.27734375 C197.35369142 887.94123059 191.23595459 889.75583631 183.73828125 890.10546875 C177.3272488 889.80337822 172.81098145 887.12243732 168 883 C166.16098479 880.97294643 164.44277886 878.92370515 162.80078125 876.734375 C159.11685372 873.18629729 154.07378721 872.7422919 149.15234375 872.359375 C147.43664185 872.21278442 147.43664185 872.21278442 145.6862793 872.06323242 C144.44918213 871.95986572 143.21208496 871.85649902 141.9375 871.75 C65.35955401 864.66198882 -4.85890584 838.21913303 -69 796 C-70.09948975 795.27731934 -70.09948975 795.27731934 -71.22119141 794.54003906 C-79.0812083 789.33939863 -86.66888164 783.82678733 -94.125 778.0625 C-94.8046582 777.53785156 -95.48431641 777.01320313 -96.18457031 776.47265625 C-109.15605715 766.30565008 -121.02627558 755.27453769 -132.62524414 743.58056641 C-134.95333389 741.23404072 -137.28950701 738.89579595 -139.62695312 736.55859375 C-141.1358916 735.04474408 -142.64437173 733.53043738 -144.15234375 732.015625 C-144.83787827 731.32897766 -145.52341278 730.64233032 -146.22972107 729.93487549 C-150.15126649 725.97513388 -153.90130669 721.9134963 -157.53712463 717.68945312 C-159.30020626 715.65329623 -161.15038557 713.7075086 -163 711.75 C-179.59578101 693.31652604 -192.99714233 671.89224607 -205.5 650.55761719 C-206.49545791 648.86028369 -207.49542357 647.16558543 -208.5 645.47363281 C-221.46206696 623.62546136 -231.8382754 600.95843572 -240.78320312 577.19384766 C-241.84468927 574.4076595 -242.94833592 571.6456725 -244.078125 568.88671875 C-255.79112147 539.58805347 -262.19971521 507.23320877 -266 476 C-266.15936035 474.79794922 -266.3187207 473.59589844 -266.48291016 472.35742188 C-277.87151658 384.57953262 -262.31523521 291.29720719 -220.97412109 212.84960938 C-219.92559261 210.8587192 -218.89428086 208.85939397 -217.86328125 206.859375 C-209.1879163 190.13104144 -199.52398775 174.44680752 -188.53027344 159.13525391 C-187.28224978 157.39383481 -186.04907622 155.64178092 -184.8203125 153.88671875 C-179.68801823 146.62881762 -173.99927643 139.8390521 -168.3203125 133.0078125 C-165.79831408 129.97324713 -163.318767 126.91066486 -160.875 123.8125 C-153.11154905 114.10410029 -145.03986228 104.86196764 -136.25 96.0625 C-135.20501343 95.01630493 -135.20501343 95.01630493 -134.13891602 93.94897461 C-129.58209515 89.44073968 -124.86831364 85.16829876 -120 81 C-119.42878418 80.50701416 -118.85756836 80.01402832 -118.26904297 79.50610352 C-114.78431204 76.50076715 -111.28177592 73.51628455 -107.78173828 70.52880859 C-106.12592895 69.1080525 -104.48132101 67.67554568 -102.83984375 66.23828125 C-90.38911786 55.40942104 -76.83155496 45.97382386 -63 37 C-61.88270131 36.26579418 -60.76551875 35.53141161 -59.6484375 34.796875 C-58.47426029 34.03078699 -57.29977752 33.26516712 -56.125 32.5 C-55.54596924 32.11908203 -54.96693848 31.73816406 -54.37036133 31.34570312 C-51.37672237 29.40764387 -48.39103385 27.65609707 -45.17578125 26.109375 C-38.72337326 22.94654436 -34.56166382 20.59870079 -32 13.4375 C-31.66871094 12.32503906 -31.33742188 11.21257812 -30.99609375 10.06640625 C-29.18429754 4.48891595 -25.89657472 1.27812644 -21.125 -1.9375 C-13.81939477 -4.42140578 -6.9649811 -2.90499212 0 0 Z M172 851 C167.89899489 856.05082918 166 860.48010287 166 867 C167.71750689 873.52652618 171.55130771 877.15264094 177 881 C181.38741804 883.0594003 185.17966225 883.50740397 190 883 C196.21343327 880.42892416 199.03383967 876.96909123 202 871 C203.67721097 865.96836708 203.57769028 862.31713383 201.4375 857.4375 C198.44854001 852.70853831 194.33009931 848.77669977 189 847 C182.33592323 846.3618388 177.08610464 846.15609082 172 851 Z " fill="#262B72" transform="translate(450,183)"/>
<path d="M0 0 C5.98998033 4.2411574 10.1521846 8.42706366 11.875 15.6875 C12.5559807 23.38113302 9.57035302 30.34216171 4.70703125 36.17578125 C4.14371094 36.77777344 3.58039062 37.37976563 3 38 C2.44699219 38.59167969 1.89398437 39.18335938 1.32421875 39.79296875 C-2.98439497 43.67717941 -6.22899487 44.28952551 -12 44.4375 C-18.13221564 44.63383561 -21.045659 45.56930981 -25.28125 49.984375 C-25.8484375 50.64953125 -26.415625 51.3146875 -27 52 C-27.5671875 52.62390625 -28.134375 53.2478125 -28.71875 53.890625 C-30.51460895 55.89872182 -32.25786788 57.9451775 -34 60 C-38.57994305 65.32551517 -43.2714158 70.33406405 -48.50390625 75.02734375 C-55.14677713 81.04609734 -61.45346856 87.37291592 -67.75 93.75 C-74.31140101 100.39423204 -80.8435825 106.98650922 -88 113 C-89.04474648 113.90049012 -90.08904149 114.80150439 -91.1328125 115.703125 C-98.38043421 121.87211894 -105.7569269 127.83997742 -113.28125 133.66796875 C-114.95110609 134.96210722 -116.61644626 136.26187208 -118.28125 137.5625 C-138.17159921 153.05086197 -159.12882554 167.45173178 -181 180 C-181.80099121 180.4640625 -182.60198242 180.928125 -183.42724609 181.40625 C-265.35651698 228.80160021 -352.44947698 255.81800313 -446.1875 266.1875 C-446.94747284 266.2724472 -447.70744568 266.35739441 -448.490448 266.44491577 C-532.49176499 275.75761185 -619.74062964 264.78330472 -755 219 C-756.02931641 218.57477051 -757.05863281 218.14954102 -758.11914062 217.71142578 C-769.6582625 212.91084101 -780.86605602 207.71278846 -791.85546875 201.76171875 C-795.72630952 199.66626659 -799.62920172 197.64342475 -803.55078125 195.64453125 C-836.9958463 178.5885812 -868.9476597 157.86742266 -898.27197266 134.38085938 C-901.29328005 131.96654535 -904.33414763 129.5771191 -907.375 127.1875 C-907.95950928 126.72802979 -908.54401855 126.26855957 -909.14624023 125.79516602 C-919.06074582 117.42290154 -919.06074582 117.42290154 -931.1875 114.6875 C-937.18905969 114.35313347 -941.33095236 113.95854039 -946 110 C-951.5807864 102.71560512 -952.97380857 96.12365891 -952 87 C-949.98087295 80.78809381 -945.42693306 77.11927624 -939.8125 74.078125 C-933.93671705 71.82574154 -928.18945836 71.6025324 -922.37890625 74.1484375 C-917.78663567 76.99881235 -914.26338921 80.02054374 -912 85 C-911.4678335 88.29278021 -911.0631465 91.55476926 -910.78515625 94.87890625 C-909.19064291 101.2172951 -902.67732624 105.03306941 -897.75 109 C-897.05253662 109.56323975 -896.35507324 110.12647949 -895.63647461 110.70678711 C-868.69696028 132.36003442 -840.24481047 152.2255673 -810 169 C-809.1558252 169.47211914 -808.31165039 169.94423828 -807.44189453 170.43066406 C-740.99629298 207.53078123 -669.4455698 232.50468624 -593.9375 242.75 C-593.19923981 242.85095978 -592.46097961 242.95191956 -591.7003479 243.05593872 C-571.72041988 245.76083032 -551.70225342 247.29103264 -531.5625 248.125 C-530.08589905 248.18753967 -530.08589905 248.18753967 -528.57946777 248.25134277 C-446.71059157 251.68976263 -366.23700967 238.06515396 -255 196 C-253.88802246 195.505 -252.77604492 195.01 -251.63037109 194.5 C-237.21868918 188.08273854 -223.2415126 181.13732552 -209.49609375 173.39648438 C-207.14410361 172.08062134 -204.77946501 170.79271904 -202.40625 169.515625 C-184.1218276 159.63345947 -166.80199917 148.21302491 -150 136 C-149.2359082 135.44844238 -148.47181641 134.89688477 -147.68457031 134.32861328 C-127.85112311 119.99726996 -109.09080698 104.46987068 -91 88 C-90.18402344 87.27683594 -89.36804687 86.55367187 -88.52734375 85.80859375 C-81.17578978 79.21863962 -74.17514825 72.28348706 -67.1875 65.3125 C-66.4377037 64.566586 -66.4377037 64.566586 -65.67276001 63.80560303 C-60.44571867 58.59989567 -55.30483086 53.35984033 -50.50415039 47.75366211 C-47.44658846 44.18890519 -44.2221599 40.77267494 -41.0390625 37.3203125 C-37.16941659 32.91692233 -37.97832549 28.75297392 -38.21484375 23.20507812 C-38.38972763 14.69141294 -34.57547053 8.20996718 -29 2 C-20.52298586 -4.61207103 -9.54654021 -4.89346036 0 0 Z M-24.9921875 6.80859375 C-29.21944698 11.44805488 -31.68574367 15.11931699 -32.375 21.4375 C-31.79526154 26.94501537 -29.10403526 30.1784107 -25.0625 33.75 C-19.85180759 37.57826381 -15.48711761 38.79329643 -9 38 C-2.64481679 35.83923771 1.11348517 31.19887297 4.4375 25.5625 C5.69515315 19.83319121 4.44802242 14.49582716 1.359375 9.60546875 C-2.09770068 5.52254316 -6.43484449 3.44718729 -11.5 2 C-16.96266144 2 -20.89310249 3.08726755 -24.9921875 6.80859375 Z " fill="#262B72" transform="translate(1144,969)"/>
<path d="M0 0 C9.80150265 2.09342212 9.80150265 2.09342212 18.95825195 -0.66699219 C24.062707 -3.78638138 28.39123382 -4.13928654 34.33325195 -3.72949219 C40.59961086 -1.64070588 45.22928865 1.46522341 49.20825195 6.77050781 C51.35265776 13.44199254 51.67889871 21.20228295 48.77075195 27.70800781 C45.88044674 32.58023661 41.71840604 36.47545645 36.33325195 38.27050781 C28.96908628 38.88418829 22.18891072 36.82917838 15.39575195 34.08300781 C12.76366937 31.76996554 11.67276989 29.31175175 10.32543945 26.11035156 C9.33789465 23.9348416 9.33789465 23.9348416 6.33325195 22.27050781 C3.6135223 21.62952556 0.93118783 21.07404409 -1.81518555 20.57910156 C-2.62355865 20.42893082 -3.43193176 20.27876007 -4.26480103 20.1240387 C-5.98067204 19.80720269 -7.69719752 19.49389378 -9.41430664 19.18383789 C-11.99914157 18.71572385 -14.58098799 18.23327568 -17.1628418 17.74902344 C-18.83846207 17.44150437 -20.51423921 17.13483863 -22.19018555 16.82910156 C-22.94488129 16.6874205 -23.69957703 16.54573944 -24.47714233 16.39976501 C-35.51142358 14.4343045 -46.63863599 14.10935451 -57.82299805 14.06738281 C-59.04539185 14.06168274 -60.26778564 14.05598267 -61.52722168 14.05010986 C-64.10546014 14.04072238 -66.68371026 14.034151 -69.26196289 14.03027344 C-73.10154764 14.02067087 -76.94057197 13.98962862 -80.7800293 13.95800781 C-104.6796394 13.85343113 -128.24864167 15.69985195 -151.60424805 20.89550781 C-152.78262238 21.15012283 -152.78262238 21.15012283 -153.98480225 21.40988159 C-169.82646177 24.83847188 -185.26176478 29.22728035 -200.66674805 34.27050781 C-201.59535645 34.56779785 -202.52396484 34.86508789 -203.48071289 35.17138672 C-246.81099978 49.10565299 -285.39289395 72.87047639 -320.66674805 101.27050781 C-321.64256836 102.05167969 -322.61838867 102.83285156 -323.6237793 103.63769531 C-329.0112003 107.99284124 -334.22435264 112.49681201 -339.3425293 117.16503906 C-341.37948729 119.01028337 -343.44945652 120.80132451 -345.54174805 122.58300781 C-353.88760404 129.88352426 -361.50891811 137.76734123 -368.4050293 146.44628906 C-370.40470011 148.94328733 -372.459242 151.38010255 -374.54736328 153.80322266 C-396.13089179 178.89999087 -413.91785697 206.65298776 -428.66674805 236.27050781 C-429.17286621 237.26945068 -429.17286621 237.26945068 -429.68920898 238.28857422 C-447.6847093 274.27106231 -457.19475749 313.76329838 -463.50268555 353.24316406 C-463.7042627 354.50394775 -463.90583984 355.76473145 -464.11352539 357.0637207 C-465.41113517 366.25376033 -465.8241367 375.44806692 -465.8347168 384.71972656 C-465.8380452 385.77545364 -465.8413736 386.83118073 -465.84480286 387.91889954 C-465.84983082 390.14327566 -465.85221247 392.36765922 -465.85205078 394.59204102 C-465.85421339 397.90492073 -465.87234802 401.21745343 -465.89135742 404.53027344 C-465.94652764 424.91500642 -464.69476824 445.13923155 -461.41674805 465.27050781 C-461.31169952 465.93008484 -461.206651 466.58966187 -461.09841919 467.26922607 C-458.99072658 480.44343276 -456.09004638 493.3770091 -452.66674805 506.27050781 C-452.17754883 508.15576172 -452.17754883 508.15576172 -451.6784668 510.07910156 C-451.09539753 512.21873459 -450.47515365 514.34864262 -449.81518555 516.46582031 C-448.83879785 519.7005197 -448.01207626 522.92097267 -447.20581055 526.20019531 C-444.57358857 538.28560695 -444.57358857 538.28560695 -436.79956055 547.12207031 C-434.04273611 548.36939526 -431.23538412 549.26376091 -428.3347168 550.11425781 C-423.40570769 551.66802426 -421.20393012 553.89921821 -418.66674805 558.27050781 C-417.73862305 559.69363281 -417.73862305 559.69363281 -416.79174805 561.14550781 C-414.69771993 566.96225258 -414.93470442 572.09664875 -417.22924805 577.83300781 C-420.79067103 584.96830631 -425.89943005 590.79921704 -433.07299805 594.42285156 C-439.18419734 596.42003567 -446.67985541 596.71465659 -452.54174805 593.77050781 C-458.1956601 589.79443999 -463.39719152 584.18253777 -464.66674805 577.27050781 C-465.53065354 570.18099767 -463.80496519 564.62256179 -460.66674805 558.27050781 C-460.33674805 557.94050781 -460.00674805 557.61050781 -459.66674805 557.27050781 C-459.96897227 549.63321992 -462.22294668 542.91567823 -464.67324829 535.71636963 C-469.41483318 521.73278454 -473.45639744 507.69061339 -476.66674805 493.27050781 C-477.00464355 491.76810547 -477.00464355 491.76810547 -477.34936523 490.23535156 C-480.86751361 474.35600566 -483.14797308 458.45938771 -484.66674805 442.27050781 C-484.76246094 441.35897949 -484.85817383 440.44745117 -484.95678711 439.50830078 C-491.59711309 368.40445174 -478.40512878 297.92178779 -448.66674805 233.27050781 C-447.8754248 231.54429199 -447.8754248 231.54429199 -447.06811523 229.78320312 C-439.61794942 213.60569632 -431.54814235 198.12903275 -421.66674805 183.27050781 C-421.18608887 182.54057617 -420.70542969 181.81064453 -420.21020508 181.05859375 C-410.95555584 167.06001834 -400.57136925 154.09768948 -389.55175781 141.45874023 C-388.05127118 139.71688533 -386.56839165 137.9637957 -385.09228516 136.20141602 C-378.33727368 128.17128727 -371.27693319 120.5650314 -363.83007812 113.1730957 C-362.09420074 111.44802304 -360.36939715 109.71238791 -358.64526367 107.97558594 C-351.97195878 101.29386108 -345.09865632 95.11480172 -337.66674805 89.27050781 C-336.35334904 88.19898136 -335.04191423 87.12503926 -333.7331543 86.04785156 C-326.29974175 80.00148568 -318.72410291 74.47079042 -310.66674805 69.27050781 C-309.53971497 68.51049319 -308.41479735 67.74733438 -307.29174805 66.98144531 C-289.80605423 55.07853326 -271.55578222 44.77074007 -252.66674805 35.27050781 C-251.74555176 34.80257812 -250.82435547 34.33464844 -249.87524414 33.85253906 C-173.54264699 -4.72574752 -83.86213799 -13.80805061 0 0 Z M-455.15112305 562.27050781 C-458.12985247 566.20120231 -459.13414544 569.21596679 -458.9753418 574.25097656 C-458.21299263 579.24002113 -454.97051071 582.21607575 -451.10424805 585.08300781 C-445.90698787 588.65974143 -440.82169481 588.92549432 -434.66674805 588.27050781 C-428.70450894 585.63336359 -425.81749052 580.74588345 -422.66674805 575.27050781 C-422.08924805 574.28050781 -421.51174805 573.29050781 -420.91674805 572.27050781 C-420.56110914 568.00284096 -422.25465266 565.90483586 -424.73706055 562.52441406 C-428.8577482 557.71138415 -433.38324183 552.58622956 -439.91674805 551.95800781 C-447.02798712 552.55061107 -450.71562605 557.15570047 -455.15112305 562.27050781 Z " fill="#262B72" transform="translate(711.666748046875,196.7294921875)"/>
<path d="M0 0 C1.37309301 -0.00701611 2.74618565 -0.01410297 4.11927795 -0.02125549 C8.49228365 -0.0407016 12.8652367 -0.04568986 17.23828125 -0.046875 C18.35336815 -0.04753778 18.35336815 -0.04753778 19.49098206 -0.04821396 C41.30455146 -0.05502302 62.91223203 0.06155523 84.55078125 3.203125 C85.79891602 3.38004883 87.04705078 3.55697266 88.33300781 3.73925781 C106.25770405 6.35017583 123.93950751 9.98928348 141.55078125 14.203125 C143.00460205 14.544646 143.00460205 14.544646 144.48779297 14.89306641 C161.23353357 18.86287495 177.38972013 24.3168905 193.55078125 30.203125 C194.6701709 30.60595703 195.78956055 31.00878906 196.94287109 31.42382812 C226.61289475 42.20018398 255.98769052 56.09352544 282.55078125 73.203125 C283.42250977 73.76306152 284.29423828 74.32299805 285.19238281 74.89990234 C304.99194335 87.70361816 324.17720845 101.44685632 342.11328125 116.765625 C346.51975726 120.52807241 350.98107434 124.2025706 355.55078125 127.765625 C357.09765625 128.97412109 357.09765625 128.97412109 358.67578125 130.20703125 C361.30381673 132.03165914 363.49404003 133.29338059 366.55078125 134.203125 C367.45828125 133.996875 368.36578125 133.790625 369.30078125 133.578125 C375.05353575 132.91434563 379.58999441 135.98307986 384.36328125 138.953125 C388.83775713 143.55544304 390.7891568 148.22086081 391.17578125 154.640625 C390.89198773 161.70610493 387.56900787 166.17853081 382.69921875 171.05859375 C379.0315923 174.34385063 376.50007686 176.04718135 371.42578125 176.453125 C364.27801327 175.99197868 358.33911358 173.95285856 353.05859375 169.00390625 C349.40077521 164.63537167 347.70020349 160.02607637 347.23828125 154.390625 C347.4856874 151.86708224 347.78014908 149.61135053 348.55078125 147.203125 C347.73287109 146.86474609 347.73287109 146.86474609 346.8984375 146.51953125 C343.85252898 144.81159253 341.49819653 142.53206739 338.98828125 140.140625 C324.04773752 126.20702801 307.54107441 113.9518014 290.58984375 102.58007812 C288.52326535 101.18454386 286.4738718 99.76624898 284.42578125 98.34375 C267.11125655 86.42328179 248.5785873 76.13215694 229.55078125 67.203125 C228.10832031 66.51814941 228.10832031 66.51814941 226.63671875 65.81933594 C196.96715047 51.81565718 166.46412077 40.85697414 134.55078125 33.203125 C133.44041504 32.92919922 132.33004883 32.65527344 131.18603516 32.37304688 C103.38640501 25.55155596 75.1242285 21.67384952 46.55078125 20.203125 C45.48585449 20.14672852 44.42092773 20.09033203 43.32373047 20.03222656 C25.88100149 19.1366406 8.61228262 18.88016421 -8.82421875 20.015625 C-9.51064453 20.06013794 -10.19707031 20.10465088 -10.90429688 20.1505127 C-70.22661472 24.04916778 -127.44569624 38.37832091 -181.44921875 63.203125 C-183.21872522 64.002659 -184.98825416 64.80214331 -186.7578125 65.6015625 C-228.52194405 84.71230577 -267.01128384 111.0140654 -300.91894531 141.9074707 C-302.49280447 143.33539406 -304.07363684 144.75571712 -305.66503906 146.1640625 C-312.12145465 151.88847683 -318.29172172 157.85940329 -324.39038086 163.95898438 C-326.00812067 165.5745318 -327.63372511 167.18187534 -329.25976562 168.7890625 C-341.58867728 180.08117417 -341.58867728 180.08117417 -349.44921875 194.203125 C-348.78921875 195.193125 -348.12921875 196.183125 -347.44921875 197.203125 C-345.81626404 205.47780897 -348.90386137 212.40418706 -353.44921875 219.203125 C-357.12224849 223.17543865 -360.80516774 226.95435676 -366.35546875 227.4765625 C-375.57276725 227.73705137 -382.16929739 226.72076472 -389.2890625 220.62890625 C-393.84536928 215.84979718 -396.35768625 210.24275914 -396.5078125 203.6171875 C-395.94770587 195.68035741 -393.45376658 190.52533785 -387.44921875 185.203125 C-382.50080485 181.33377052 -379.1126415 179.0225618 -372.63671875 179.390625 C-367.67554463 179.41219532 -365.25019807 178.58177329 -361.44921875 175.203125 C-359.80741363 173.45336557 -358.25037312 171.65388279 -356.70703125 169.81640625 C-353.10350731 165.6455455 -349.29577245 161.66573055 -345.51171875 157.65893555 C-342.83911424 154.8159525 -340.2182894 151.96851045 -337.75 148.9453125 C-335.84351262 146.67306438 -334.03721282 144.82880341 -331.76171875 142.953125 C-328.49798623 140.17495721 -325.45920309 137.25472203 -322.44921875 134.203125 C-318.27107364 129.98693911 -313.97554491 126.03859085 -309.44921875 122.203125 C-308.52882813 121.40519531 -307.6084375 120.60726562 -306.66015625 119.78515625 C-297.87894398 112.20797737 -288.74492947 105.13569208 -279.44921875 98.203125 C-278.72041504 97.65865723 -277.99161133 97.11418945 -277.24072266 96.55322266 C-259.47980206 83.34537784 -240.78010504 71.95311216 -221.44921875 61.203125 C-220.45003418 60.64334961 -219.45084961 60.08357422 -218.42138672 59.50683594 C-193.68076561 45.69219762 -168.19225415 34.54441647 -141.44921875 25.203125 C-140.64242676 24.91775879 -139.83563477 24.63239258 -139.00439453 24.33837891 C-102.92971683 11.72301385 -64.38630533 4.96654815 -26.44921875 1.203125 C-25.57625153 1.11579605 -24.7032843 1.0284671 -23.80386353 0.93849182 C-15.86119633 0.20789642 -7.9732998 0.02744568 0 0 Z M-387.12109375 193.1015625 C-390.48370866 197.88100954 -391.27403513 201.42941032 -390.44921875 207.203125 C-388.16478239 213.3545123 -383.93476808 216.87942545 -378.57421875 220.453125 C-373.38009835 222.28634397 -369.93249245 222.76574606 -364.82421875 220.828125 C-359.93657016 217.64442729 -357.00904251 212.32277252 -354.44921875 207.203125 C-353.92536115 201.94737335 -353.78416503 197.55786405 -356.13671875 192.765625 C-360.63263137 187.78366777 -364.30082695 185.12042171 -371.07421875 184.765625 C-377.99270928 184.85652488 -382.62683249 187.99826583 -387.12109375 193.1015625 Z " fill="#262B72" transform="translate(617.44921875,100.796875)"/>
<path d="M0 0 C5.8012243 3.40147687 10.78296425 8.46377583 12.55859375 15.08203125 C13.26543584 21.20799605 11.80510221 25.94021477 8.55859375 31.08203125 C3.36328897 36.90740491 -1.4465603 39.68909558 -9.25390625 40.45703125 C-14.10302713 40.31715276 -18.38537847 38.71592481 -22.44140625 36.08203125 C-22.91578125 35.17453125 -23.39015625 34.26703125 -23.87890625 33.33203125 C-24.39453125 32.58953125 -24.91015625 31.84703125 -25.44140625 31.08203125 C-33.02770363 29.95253563 -41.18642481 31.68074948 -48.69140625 32.76953125 C-49.95283447 32.94959717 -51.2142627 33.12966309 -52.51391602 33.31518555 C-56.49179727 33.89118728 -60.46695673 34.4829446 -64.44140625 35.08203125 C-66.31771729 35.36288574 -66.31771729 35.36288574 -68.23193359 35.64941406 C-136.07698265 45.95837179 -199.68590792 69.16964852 -258.48291016 104.31591797 C-261.44532711 106.08437186 -264.41761953 107.83535762 -267.390625 109.5859375 C-279.9772459 117.05595259 -291.86246143 125.13308061 -303.44140625 134.08203125 C-304.09995605 134.58895508 -304.75850586 135.09587891 -305.43701172 135.61816406 C-309.4714743 138.7320873 -313.46901621 141.88938785 -317.44140625 145.08203125 C-318.36953125 145.82710937 -319.29765625 146.5721875 -320.25390625 147.33984375 C-335.80314351 159.95099839 -350.6303882 173.20673607 -364.81640625 187.33203125 C-365.94030762 188.44892334 -365.94030762 188.44892334 -367.08691406 189.58837891 C-371.74340328 194.25836218 -376.14796512 199.07832973 -380.44140625 204.08203125 C-381.48688197 205.27336484 -382.53372736 206.46349803 -383.58203125 207.65234375 C-399.19174221 225.45624058 -413.26242777 244.35697999 -426.20117188 264.18701172 C-427.48540372 266.1492573 -428.78315669 268.10210929 -430.08203125 270.0546875 C-437.38773532 281.10704103 -444.00983342 292.50236894 -450.44140625 304.08203125 C-450.81362305 304.74912109 -451.18583984 305.41621094 -451.56933594 306.10351562 C-481.94014819 360.80004067 -500.90340504 421.45172915 -509.94140625 483.20703125 C-510.13648773 484.50667816 -510.13648773 484.50667816 -510.33551025 485.83258057 C-511.67799789 494.88957211 -512.67525857 503.86827082 -512.796875 513.03125 C-512.81419678 513.77396149 -512.83151855 514.51667297 -512.84936523 515.28189087 C-512.8306809 519.75387001 -512.19916189 522.37929976 -509.25390625 525.76953125 C-507.99535454 526.88767658 -506.7248586 527.99255824 -505.44140625 529.08203125 C-499.85739324 536.00903473 -498.80110163 541.33941051 -499.44140625 550.08203125 C-501.52078326 557.61977291 -507.02417666 563.51910906 -513.19140625 568.14453125 C-521.27753309 570.47706784 -529.88232005 569.78628465 -537.44140625 566.08203125 C-543.23539119 562.40507927 -546.36018978 557.62679283 -548.44140625 551.08203125 C-549.28940315 544.8658453 -549.67804056 538.23125947 -545.9921875 532.81640625 C-543.09342807 529.57446875 -539.85293167 526.66988444 -536.5859375 523.8046875 C-533.8558155 520.33857633 -533.57849256 517.34367087 -533.44140625 513.08203125 C-533.395 511.83550781 -533.34859375 510.58898437 -533.30078125 509.3046875 C-533.2853125 508.64525146 -533.26984375 507.98581543 -533.25390625 507.30639648 C-532.59067697 484.36539946 -527.72613685 461.53291028 -523.00390625 439.14453125 C-522.73259888 437.83813187 -522.73259888 437.83813187 -522.45581055 436.50534058 C-520.07729142 425.12924722 -517.03555588 414.21838632 -513.19192505 403.25350952 C-511.9678121 399.71177988 -510.83165026 396.14239964 -509.6875 392.57421875 C-495.15830722 347.69081272 -476.20072741 305.40376063 -450.92724609 265.45410156 C-449.57827419 263.30053419 -448.26196762 261.13196949 -446.9609375 258.94921875 C-440.50362 248.1865743 -432.98400646 238.33760903 -425.27587891 228.44384766 C-423.69614529 226.40999845 -422.13146672 224.36651957 -420.578125 222.3125 C-412.69922361 211.90311504 -404.2772554 202.01162159 -395.49609375 192.35546875 C-393.57204487 190.22657816 -391.68994813 188.06783983 -389.81640625 185.89453125 C-387.06731736 182.73371246 -384.16695124 179.78583708 -381.1796875 176.8515625 C-379.41183309 175.05192644 -377.76886083 173.18601213 -376.12890625 171.26953125 C-370.11169586 164.30791564 -363.54054659 157.88478987 -356.546875 151.91015625 C-354.08413597 149.77182255 -351.70653282 147.55118526 -349.31640625 145.33203125 C-317.60008016 116.48320862 -279.89640685 92.63346261 -242.44140625 72.08203125 C-241.62607422 71.62844238 -240.81074219 71.17485352 -239.97070312 70.70751953 C-227.82254077 63.96161579 -215.32903311 58.43553283 -202.43066406 53.28027344 C-199.6118718 52.15036226 -196.80347606 50.99774843 -193.99609375 49.83984375 C-147.23366977 30.78550945 -98.41692707 20.49709376 -48.5847168 13.47851562 C-47.62952148 13.34044495 -46.67432617 13.20237427 -45.69018555 13.06011963 C-43.90415561 12.8020754 -42.11700356 12.55162894 -40.32861328 12.31048584 C-32.46670838 11.1627295 -27.46016022 9.51230977 -22.44140625 3.08203125 C-16.01699216 -1.97548622 -7.7285211 -2.90592393 0 0 Z M-538.75390625 533.20703125 C-541.99817102 537.27089976 -542.79470286 540.9376879 -542.44140625 546.08203125 C-541.46527914 552.1702467 -539.25887634 556.18825398 -534.3359375 559.9296875 C-529.77597253 562.70327444 -524.69979233 563.83322926 -519.44140625 563.08203125 C-513.2000859 560.43008683 -509.04278333 556.35664912 -506.44140625 550.08203125 C-505.62649994 544.47955039 -506.83339717 539.0890452 -509.44140625 534.08203125 C-512.89754997 530.16833659 -516.36071608 527.35775567 -521.7109375 526.87890625 C-528.99586789 526.74462182 -533.53484194 527.88926123 -538.75390625 533.20703125 Z " fill="#262B72" transform="translate(624.44140625,45.91796875)"/>
<path d="M0 0 C6.1059029 4.42869797 10.59839789 10.12780539 12.17578125 17.578125 C13.08349247 24.03422107 12.08955265 29.29453362 8.17578125 34.578125 C6.25099263 36.36880949 4.29453207 37.99091737 2.17578125 39.546875 C-3.83150543 45.64802553 -4.49689774 52.82032536 -5.13671875 61.015625 C-12.05473261 132.62357604 -34.68263644 202.45189211 -66.82421875 266.578125 C-67.26588379 267.4640332 -67.70754883 268.34994141 -68.16259766 269.26269531 C-85.89117595 304.60561217 -108.29103865 337.4584073 -133.44775391 367.90185547 C-135.29032937 370.14575812 -137.08883556 372.42333498 -138.88671875 374.703125 C-151.43815268 390.38589379 -165.16264135 404.97137461 -179.32421875 419.203125 C-179.95811523 419.84169434 -180.59201172 420.48026367 -181.24511719 421.13818359 C-185.03242645 424.91257028 -188.94290456 428.48913078 -192.98925781 431.98388672 C-195.36071473 434.04423979 -197.65178982 436.18582793 -199.94921875 438.328125 C-204.65266037 442.62172316 -209.53888457 446.58459597 -214.57421875 450.48046875 C-218.27587203 453.34704189 -221.88424256 456.2911072 -225.44921875 459.328125 C-247.88534962 478.09396533 -272.42221506 494.14629228 -297.82421875 508.578125 C-299.4494043 509.5057666 -299.4494043 509.5057666 -301.10742188 510.45214844 C-314.98436578 518.34088084 -329.01317143 525.81876985 -343.38671875 532.765625 C-344.02753387 533.07586609 -344.668349 533.38610718 -345.32858276 533.70574951 C-352.59711549 537.21309531 -359.90422763 540.52071771 -367.42602539 543.45532227 C-371.80414669 545.50510134 -373.732959 548.88519771 -376.26953125 552.8203125 C-379.99694532 558.53318331 -383.38447507 562.83527121 -389.82421875 565.578125 C-396.77243997 566.10532466 -403.13785727 563.35294222 -408.82421875 559.578125 C-413.367668 555.39065734 -416.5242146 551.10673138 -417.26171875 544.890625 C-417.06685524 538.72376801 -414.04699374 533.89333222 -409.8515625 529.5234375 C-404.819553 524.98992613 -401.00120689 522.1117152 -393.96875 522.2421875 C-390.89815268 522.72319182 -388.58519823 524.05917076 -385.9765625 525.703125 C-381.9901526 527.32373447 -378.49262364 527.1825311 -374.50843811 525.73919678 C-371.79438931 524.50151075 -369.13903916 523.18076712 -366.484375 521.8203125 C-365.49322189 521.32534271 -364.50206879 520.83037292 -363.48088074 520.32040405 C-360.27496979 518.71305413 -357.08053317 517.08436211 -353.88671875 515.453125 C-351.68924621 514.34188782 -349.49165487 513.23088554 -347.29394531 512.12011719 C-333.67484344 505.20564574 -320.26344651 498.09660811 -307.26123047 490.07226562 C-304.75903419 488.53816011 -302.23565009 487.0459392 -299.703125 485.5625 C-280.62720893 474.35857497 -262.4401791 461.95313099 -244.82421875 448.578125 C-244.18403809 448.0924707 -243.54385742 447.60681641 -242.88427734 447.10644531 C-226.8703134 434.89189796 -211.50309794 421.53187561 -197.4140625 407.1328125 C-195.70207448 405.45868171 -193.90657478 403.93172122 -192.07421875 402.390625 C-188.02430835 398.90581837 -184.47041315 395.02197341 -180.90039062 391.06079102 C-178.19917903 388.06607156 -175.45082253 385.15455546 -172.57421875 382.328125 C-168.77835336 378.57817734 -165.29103383 374.63163186 -161.82421875 370.578125 C-160.91849681 369.53599915 -160.01220072 368.49437215 -159.10546875 367.453125 C-152.08007303 359.35894776 -145.34409266 351.08397643 -138.82421875 342.578125 C-138.08921143 341.62268799 -138.08921143 341.62268799 -137.33935547 340.64794922 C-130.0973442 331.20842634 -123.26995076 321.57727337 -116.82421875 311.578125 C-116.37111328 310.87913086 -115.91800781 310.18013672 -115.45117188 309.45996094 C-100.67711816 286.60982985 -87.59889053 263.08889006 -75.82421875 238.578125 C-75.21006104 237.29977783 -75.21006104 237.29977783 -74.58349609 235.99560547 C-56.91185983 198.75574554 -44.28139297 159.01751 -35.72460938 118.78222656 C-34.97413789 115.25548433 -34.18264621 111.73982167 -33.37109375 108.2265625 C-30.42990701 95.2398841 -28.45107895 82.11933207 -26.51171875 68.953125 C-26.30852524 67.57909515 -26.30852524 67.57909515 -26.10122681 66.17730713 C-25.71520993 63.54870616 -25.33647385 60.91917934 -24.9609375 58.2890625 C-24.78792618 57.10464569 -24.78792618 57.10464569 -24.61141968 55.89630127 C-24.03357692 51.77115066 -23.524887 47.75220573 -23.82421875 43.578125 C-25.62157722 41.42159423 -25.62157722 41.42159423 -28.07421875 39.703125 C-33.16436564 35.4706879 -36.1582279 31.84046641 -37.1953125 25.203125 C-37.60504839 17.25673203 -34.96146518 10.81452674 -30.63671875 4.265625 C-21.35409134 -4.60444119 -11.16458762 -6.71032209 0 0 Z M-25.62109375 10.625 C-29.64889991 15.88032804 -31.17490352 18.63701107 -30.32421875 25.26171875 C-29.26473479 30.17010928 -26.70887709 32.89620086 -22.82421875 35.890625 C-17.78294282 38.72634271 -12.54767931 39.55553042 -6.82421875 38.578125 C-0.97479796 35.6996754 2.67623142 31.51455586 5.17578125 25.578125 C6.30918917 19.571063 4.07959712 15.73552206 0.875 10.8203125 C-2.44616848 6.43789708 -5.88873049 4.53582171 -11.19921875 3.515625 C-17.48118027 3.09330826 -21.58720339 6.02987272 -25.62109375 10.625 Z " fill="#262B72" transform="translate(1231.82421875,604.421875)"/>
<path d="M0 0 C6.18546543 3.0604045 10.54388255 7.65945241 12.9375 14.1875 C13.96689348 21.18737568 12.93761935 26.22077182 9.03125 32.16796875 C4.46260265 38.11990099 -1.44875557 40.95942897 -8.8125 42.0625 C-9.781875 42.145 -10.75125 42.2275 -11.75 42.3125 C-12.0186084 43.01721436 -12.2872168 43.72192871 -12.56396484 44.44799805 C-13.80464113 47.44446879 -15.22250408 50.27140585 -16.7265625 53.14453125 C-17.60272217 54.82409912 -17.60272217 54.82409912 -18.49658203 56.53759766 C-18.80323792 57.12309387 -19.1098938 57.70859009 -19.42584229 58.31182861 C-21.02951475 61.37531636 -22.62380846 64.44367893 -24.21875 67.51171875 C-24.53127716 68.11258301 -24.84380432 68.71344727 -25.165802 69.33251953 C-28.41025428 75.57438621 -31.59281245 81.84094753 -34.68359375 88.16015625 C-35.90171169 90.61870199 -37.15529888 93.05800247 -38.40625 95.5 C-67.58206047 153.33822056 -84.68802228 220.11716087 -91.75 284.3125 C-91.89953125 285.59350586 -92.0490625 286.87451172 -92.203125 288.19433594 C-97.83704971 337.0732658 -96.59052239 387.93941203 -89.30761719 436.55566406 C-88.74534175 440.34388401 -88.21875671 444.13592639 -87.6953125 447.9296875 C-81.91145189 488.61104128 -70.77495652 527.75120753 -57.15283203 566.43920898 C-56.81085785 567.41374023 -56.81085785 567.41374023 -56.4619751 568.40795898 C-55.84468803 570.16357865 -55.22303169 571.91766032 -54.60107422 573.67163086 C-53.75 576.3125 -53.75 576.3125 -53.75 578.3125 C-53.04875 578.45945312 -52.3475 578.60640625 -51.625 578.7578125 C-42.74489952 580.85718408 -35.84226695 584.47824315 -30.75 592.3125 C-27.91024189 598.27599203 -27.47502992 605.46283305 -29.5546875 611.7421875 C-33.11173842 618.83175795 -39.18757217 624.74524058 -46.25 628.375 C-52.98235985 630.17831067 -57.89152161 629.07361102 -63.9375 625.6875 C-70.71154639 621.28016236 -75.32102019 616.13921273 -77.75 608.3125 C-78.63629299 602.95535124 -78.07346157 599.42682295 -75.1875 594.8125 C-72.16970102 589.80003047 -72.3722966 586.87671295 -73.75 581.3125 C-74.47943959 578.86051575 -75.22536302 576.41932462 -75.99609375 573.98046875 C-76.32701775 572.92703781 -76.32701775 572.92703781 -76.66462708 571.85232544 C-78.16413629 567.10275743 -79.71567332 562.37271135 -81.29296875 557.6484375 C-93.74542406 520.34203258 -103.01226887 482.71707304 -108.5 443.75 C-108.60132233 443.03438904 -108.70264465 442.31877808 -108.80703735 441.58148193 C-111.78958403 420.2700149 -113.19269516 398.93571893 -113.9375 377.4375 C-113.98047211 376.22005096 -114.02344421 375.00260193 -114.06771851 373.7482605 C-114.81736083 351.89632036 -114.97383549 330.14707474 -113.75 308.3125 C-113.71110657 307.61622498 -113.67221313 306.91994995 -113.63214111 306.20257568 C-109.65040522 237.53637499 -92.64207183 168.15631128 -64.75 105.3125 C-64.46298218 104.66518921 -64.17596436 104.01787842 -63.88024902 103.35095215 C-55.43757398 84.33688865 -46.58829498 65.65102286 -36.75 47.3125 C-35.12582995 44.28083798 -33.52254632 41.23977558 -31.9375 38.1875 C-31.59332031 37.55368408 -31.24914062 36.91986816 -30.89453125 36.2668457 C-28.92602714 32.44498235 -28.56490774 30.41175356 -29.75 26.3125 C-30.65078436 12.47160189 -30.65078436 12.47160189 -26.75 7.3125 C-18.97075607 -0.62390037 -10.73128225 -4.39250488 0 0 Z M-69.75 597.3125 C-71.60714672 601.02679344 -71.19347927 605.25872471 -70.75 609.3125 C-67.94029805 615.03996936 -63.58272172 618.98654515 -57.8125 621.6875 C-53.18354793 622.6321841 -49.75861956 622.63880223 -45.703125 619.9609375 C-39.99975761 615.26530795 -35.34396972 610.14030489 -34.1875 602.6875 C-35.30867343 595.9604594 -39.43217958 592.24768711 -44.75 588.3125 C-55.81708879 581.76259031 -62.86506071 588.32707076 -69.75 597.3125 Z " fill="#262B72" transform="translate(114.75,247.6875)"/>
<path d="M0 0 C6.07917575 3.27399351 11.05264112 7.03945161 13.80078125 13.54296875 C15.63962985 20.01021178 15.64554397 26.24059195 13.1171875 32.453125 C10.23629742 37.45175546 5.50656756 41.1448962 1.1875 44.875 C-4.30811406 51.28654973 -5.77379899 59.97062577 -7.3125 68.0625 C-9.93507801 80.87411262 -13.81605089 93.14435604 -18.0625 105.5 C-18.39685059 106.47952637 -18.73120117 107.45905273 -19.07568359 108.46826172 C-35.7919742 157.06403073 -66.45820539 202.79079714 -105.59765625 236.37109375 C-107.52078447 238.03211574 -109.41845141 239.71223177 -111.30859375 241.41015625 C-124.86925241 253.50757995 -139.58920625 263.38860891 -155.01586914 272.95678711 C-155.91813232 273.52018799 -156.82039551 274.08358887 -157.75 274.6640625 C-158.55824219 275.16373535 -159.36648438 275.6634082 -160.19921875 276.17822266 C-162.19618789 277.37507422 -162.19618789 277.37507422 -163.0625 279.5 C-163.10375 280.53125 -163.145 281.5625 -163.1875 282.625 C-164.61597236 288.95109186 -169.01507436 293.25168501 -174.25 296.9375 C-179.39887757 299.79798754 -184.18726514 300.26284151 -190.046875 299.109375 C-196.71605523 297.09311121 -200.91681403 292.50223696 -204.1640625 286.4453125 C-206.33727316 281.22554484 -207.06733761 276.54363857 -205.25390625 271.05078125 C-202.35802011 264.34715556 -198.5368226 260.7856581 -192.0625 257.5 C-189.29197819 256.57649273 -187.49561242 256.33670415 -184.625 256.3125 C-183.86316406 256.29832031 -183.10132813 256.28414062 -182.31640625 256.26953125 C-180.0625 256.5 -180.0625 256.5 -178.21484375 257.57421875 C-174.93597269 258.98454986 -172.34970177 258.58773963 -169.0625 257.5 C-165.37876076 255.61801639 -161.95187466 253.39950487 -158.5 251.125 C-157.52417969 250.49158691 -156.54835938 249.85817383 -155.54296875 249.20556641 C-147.68912532 244.04628732 -140.23786719 238.56099481 -133.0625 232.5 C-132.46469727 231.99694336 -131.86689453 231.49388672 -131.25097656 230.97558594 C-127.65102284 227.93641957 -124.08084674 224.8649174 -120.52832031 221.77050781 C-119.3274529 220.72964938 -118.11458231 219.70265408 -116.8984375 218.6796875 C-106.26277833 209.6733208 -96.56897733 199.52428082 -88.0625 188.5 C-87.03397102 187.18871042 -86.00531597 185.87751972 -84.9765625 184.56640625 C-74.06820248 170.57416697 -64.38985774 156.17164809 -56.0625 140.5 C-55.41063721 139.28014404 -55.41063721 139.28014404 -54.74560547 138.03564453 C-40.35379335 110.87269682 -30.64011261 81.67941866 -24.51782227 51.58349609 C-24.0625 49.5 -24.0625 49.5 -23.16015625 46.71875 C-22.8309025 44.2728345 -22.8309025 44.2728345 -24.86328125 41.8515625 C-25.69214844 40.95179688 -26.52101563 40.05203125 -27.375 39.125 C-32.71779539 32.91939293 -34.53377267 27.89739551 -34.3125 19.765625 C-33.61374616 13.4331683 -30.92046136 7.71499588 -26.0625 3.5 C-17.17730955 -2.28788814 -9.94955092 -4.60073219 0 0 Z M-23.640625 10.21875 C-27.32230151 15.21228826 -28.57968599 19.19033093 -28.0625 25.5 C-26.11143528 31.69404282 -22.73916033 35.43117899 -17.0625 38.5 C-12.36756259 40.06497914 -7.95014602 40.31349634 -3.0625 39.5 C2.15017757 36.5577709 6.03620762 32.20387715 7.9375 26.5 C8.50362651 21.31050696 7.86433272 16.87099361 4.9375 12.5 C0.42406611 7.77970039 -3.0720416 4.75342868 -9.75 4.1875 C-15.26059583 4.28879772 -19.87973225 6.1227282 -23.640625 10.21875 Z " fill="#262B72" transform="translate(958.0625,603.5)"/>
<path d="M0 0 C6.43832527 5.43272018 9.63727252 12.47491258 12.0234375 20.3984375 C14.21670897 25.44201652 18.77283967 27.45405683 23.375 30.0625 C25.28832959 31.19737192 27.19973596 32.33549146 29.109375 33.4765625 C30.08841797 34.05696289 31.06746094 34.63736328 32.07617188 35.23535156 C52.05960676 47.29616213 70.80906228 61.41139991 89 76 C89.95132813 76.75667969 90.90265625 77.51335937 91.8828125 78.29296875 C97.88412586 83.12308563 103.58554938 88.21029772 109.23046875 93.4453125 C111.45918393 95.50113722 113.70767919 97.51616957 116 99.5 C124.73292011 107.11011609 133.10883405 115.01148686 141.3125 123.1875 C142.06515137 123.93555908 142.81780273 124.68361816 143.59326172 125.4543457 C148.26672707 130.1407326 152.70153368 134.96875819 157 140 C164.37816027 148.603909 169.8777131 154.40072931 181 157.3125 C187.71402027 159.21601268 192.18661512 163.19217824 195.9375 169 C198.13007953 175.19081278 198.36158831 179.67194611 196.0859375 185.7890625 C194.31459484 189.39546518 191.91113456 192.25257227 189 195 C188.44957031 195.55042969 187.89914062 196.10085938 187.33203125 196.66796875 C183.88082045 198.63926336 180.49085836 198.47403303 176.625 198.4375 C175.8825 198.45748047 175.14 198.47746094 174.375 198.49804688 C169.12059177 198.49340517 166.17939826 197.42176588 162 194 C157.80629539 189.51371134 154.32508669 185.18584957 153.6875 178.9375 C154 176 154 176 155.1706543 173.58618164 C156.28543902 171.04937554 156.28543902 171.04937554 155.13989258 168.82202148 C151.30409039 163.55673527 147.22579534 158.73483782 142.6875 154.0625 C141.35075115 152.66353523 140.01481003 151.2637982 138.6796875 149.86328125 C138.04256836 149.1976416 137.40544922 148.53200195 136.74902344 147.84619141 C134.55107141 145.52613094 132.42647369 143.1466112 130.3125 140.75 C123.38379701 132.99769647 116.03411884 125.57212286 108.11328125 118.83203125 C105.94366965 116.95116648 103.83551491 115.0110051 101.73144531 113.05737305 C96.63547548 108.32966036 91.44428691 103.79046555 86.0234375 99.43359375 C83.78307719 97.63030632 81.56232595 95.81152092 79.3515625 93.97265625 C70.52450462 86.66078893 61.43072961 79.91300919 52.00341797 73.39794922 C49.5267851 71.66979911 47.0866487 69.894607 44.64599609 68.11621094 C38.02445362 63.3057048 31.22499881 58.86597274 24.23046875 54.6171875 C21.19297432 52.76678453 18.24026739 50.82256244 15.30078125 48.8203125 C14.5109082 48.29816162 13.72103516 47.77601074 12.90722656 47.23803711 C11.38132742 46.2289799 9.87035337 45.19685561 8.37792969 44.13891602 C4.36229493 41.49202765 4.36229493 41.49202765 -0.28735352 41.3659668 C-1.8273181 41.90928234 -3.35128911 42.50018796 -4.85522461 43.13647461 C-10.44579269 45.3873385 -17.71625229 44.87427831 -23.46484375 43.34375 C-30.30701069 40.29695013 -34.39887843 34.80374502 -37.4375 28.125 C-39.64142157 21.96889839 -39.54296882 17.33560896 -36.79296875 11.390625 C-32.69078652 4.07380392 -28.17684385 -0.81814237 -20.0625 -3.4921875 C-12.75046197 -5.29249989 -6.43019444 -3.72384833 0 0 Z M-27.875 9 C-31.03983445 13.46800157 -32.53120824 16.16231318 -32.3828125 21.84375 C-31.46971976 26.98688459 -28.21253615 30.81855452 -24.5625 34.375 C-19.36865275 37.66865923 -15.17837429 38.4119439 -9.171875 37.53515625 C-3.28082832 36.08358539 0.7490801 31.92282156 4 27 C5.36377218 23.00663395 5.54973437 19.65740809 4.21484375 15.6328125 C1.41480385 9.99476606 -2.36150267 5.8598134 -8 3 C-15.86024064 0.44404762 -22.52427582 2.85136082 -27.875 9 Z " fill="#262B72" transform="translate(920,65)"/>
</svg>
